<svg width="210mm" height="297mm" viewBox="0 0 210 297" xml:space="preserve" xmlns="http://www.w3.org/2000/svg"><path style="opacity:1;fill:#41444c;fill-opacity:1;stroke:none;stroke-width:.26066" d="M61.326 66.11A16.446 16.498 0 0 0 44.88 82.608a16.446 16.498 0 0 0 4.807 11.64l-.008.007 32.593 32.593.008-.008a16.446 16.498 0 0 0 11.639 4.86 16.446 16.498 0 0 0 16.446-16.499 16.446 16.498 0 0 0-4.8-11.646h.001l-3.561-3.562a19.732 19.794 0 0 1-6.977 1.3A19.732 19.794 0 0 1 75.296 81.5a19.732 19.794 0 0 1 1.276-6.94l-3.599-3.597a16.446 16.498 0 0 0-11.647-4.852z"/><ellipse style="opacity:1;fill:#fff;fill-opacity:1;stroke:none;stroke-width:.26066" cx="95.029" cy="81.499" rx="16.446" ry="16.498"/><ellipse style="opacity:1;fill:#fff;fill-opacity:1;stroke:none;stroke-width:.26066" cx="-112.419" cy="-186.662" rx="16.446" ry="16.498" transform="scale(-1)"/><path style="opacity:1;fill:#41444c;fill-opacity:1;stroke:none;stroke-width:.26066" d="M79.751 202.817a16.446 16.498 0 0 0 11.646-4.852h.001l3.085-3.084a19.721 19.784 0 0 1-1.786-8.22 19.721 19.784 0 0 1 19.722-19.783 19.721 19.784 0 0 1 19.721 19.784 19.721 19.784 0 0 1-1.753 8.1l3.052 3.052a16.446 16.498 0 0 0 11.647 4.851 16.446 16.498 0 0 0 16.446-16.499 16.446 16.498 0 0 0-4.806-11.638l.009-.008-32.594-32.593-.009.008a16.446 16.498 0 0 0-11.639-4.86 16.446 16.498 0 0 0-11.794 5.005l-.002-.002-32.594 32.593.008.008a16.446 16.498 0 0 0-4.806 11.64 16.446 16.498 0 0 0 16.446 16.497zM134.025 131.001a16.446 16.498 0 0 1-16.446-16.498 16.446 16.498 0 0 1 4.807-11.64l-.008-.007 32.593-32.593.008.008a16.446 16.498 0 0 1 11.64-4.86 16.446 16.498 0 0 1 16.445 16.499 16.446 16.498 0 0 1-4.8 11.646h.002l-3.562 3.562a19.732 19.794 0 0 0-6.976-1.3 19.732 19.794 0 0 0-19.732 19.794 19.732 19.794 0 0 0 1.275 6.94l-3.598 3.598h-.001A16.446 16.498 0 0 1 134.025 131z"/><ellipse style="opacity:1;fill:#fff;fill-opacity:1;stroke:none;stroke-width:.26066" cx="167.728" cy="-115.612" rx="16.446" ry="16.498" transform="scale(1 -1)"/><ellipse style="opacity:1;fill:#272a33;fill-opacity:1;stroke:none;stroke-width:.261;stroke-dasharray:none" cx="263.353" cy="-64.067" rx="16.446" ry="16.498" transform="rotate(90)"/><path style="opacity:1;fill:#3d284f;fill-opacity:1;stroke:none;stroke-width:.261;stroke-dasharray:none" d="M80.222 296.02a16.498 16.446 0 0 0-4.852-11.646h.001l-3.085-3.086a19.784 19.721 0 0 1-8.219 1.787 19.784 19.721 0 0 1-19.783-19.722 19.784 19.721 0 0 1 19.783-19.721 19.784 19.721 0 0 1 8.1 1.752l3.052-3.052a16.498 16.446 0 0 0 4.852-11.646 16.498 16.446 0 0 0-16.499-16.446 16.498 16.446 0 0 0-11.639 4.806l-.008-.009-32.592 32.593.008.01a16.498 16.446 0 0 0-4.86 11.638 16.498 16.446 0 0 0 5.005 11.795l-.002.002 32.593 32.593.008-.008a16.498 16.446 0 0 0 11.639 4.807 16.498 16.446 0 0 0 16.498-16.446z"/></svg>